<?xml version="1.0" encoding="UTF-8" standalone="no"?>
<!DOCTYPE svg PUBLIC "-//W3C//DTD SVG 1.1//EN"
 "http://www.w3.org/Graphics/SVG/1.1/DTD/svg11.dtd">
<!-- Generated by graphviz version 2.38.0 (20140413.2041)
 -->
<!-- Title: GoERD Pages: 1 -->
<svg width="752pt" height="207pt"
 viewBox="0.00 0.00 751.50 207.00" xmlns="http://www.w3.org/2000/svg" xmlns:xlink="http://www.w3.org/1999/xlink">
<g id="graph0" class="graph" transform="scale(1 1) rotate(0) translate(4 203)">
<title>GoERD</title>
<polygon fill="white" stroke="none" points="-4,4 -4,-203 747.5,-203 747.5,4 -4,4"/>
<!-- node&#45;loggingMiddleware -->
<g id="node1" class="node"><title>node&#45;loggingMiddleware</title>
<polygon fill="none" stroke="black" points="0,-106.5 0,-175.5 133,-175.5 133,-106.5 0,-106.5"/>
<text text-anchor="middle" x="66.5" y="-160.3" font-family="Times,serif" font-size="14.00">loggingMiddleware</text>
<polyline fill="none" stroke="black" points="0,-152.5 133,-152.5 "/>
<text text-anchor="middle" x="66.5" y="-137.3" font-family="Times,serif" font-size="14.00">logger log.Logger</text>
<polyline fill="none" stroke="black" points="0,-129.5 133,-129.5 "/>
<text text-anchor="middle" x="66.5" y="-114.3" font-family="Times,serif" font-size="14.00">next EdgecastService</text>
</g>
<!-- node&#45;EdgecastService -->
<g id="node5" class="node"><title>node&#45;EdgecastService</title>
<path fill="none" stroke="black" d="M68.5,-0.5C68.5,-0.5 250.5,-0.5 250.5,-0.5 256.5,-0.5 262.5,-6.5 262.5,-12.5 262.5,-12.5 262.5,-34.5 262.5,-34.5 262.5,-40.5 256.5,-46.5 250.5,-46.5 250.5,-46.5 68.5,-46.5 68.5,-46.5 62.5,-46.5 56.5,-40.5 56.5,-34.5 56.5,-34.5 56.5,-12.5 56.5,-12.5 56.5,-6.5 62.5,-0.5 68.5,-0.5"/>
<text text-anchor="middle" x="159.5" y="-31.3" font-family="Times,serif" font-size="14.00">EdgecastService interface</text>
<polyline fill="none" stroke="black" points="56.5,-23.5 262.5,-23.5 "/>
<text text-anchor="middle" x="159.5" y="-8.3" font-family="Times,serif" font-size="14.00">GetData func(string) (string, error)</text>
</g>
<!-- node&#45;loggingMiddleware&#45;&gt;node&#45;EdgecastService -->
<g id="edge1" class="edge"><title>node&#45;loggingMiddleware:f1&#45;&gt;node&#45;EdgecastService</title>
<path fill="none" stroke="black" d="M134.5,-118C142.478,-118 140.497,-90.7229 142.5,-83 144.752,-74.3172 147.378,-64.9667 149.882,-56.3439"/>
<polygon fill="black" stroke="black" points="153.273,-57.2207 152.737,-46.6394 146.557,-55.245 153.273,-57.2207"/>
</g>
<!-- node&#45;instrumentingMiddleware -->
<g id="node2" class="node"><title>node&#45;instrumentingMiddleware</title>
<polygon fill="none" stroke="black" points="151,-83.5 151,-198.5 356,-198.5 356,-83.5 151,-83.5"/>
<text text-anchor="middle" x="253.5" y="-183.3" font-family="Times,serif" font-size="14.00">instrumentingMiddleware</text>
<polyline fill="none" stroke="black" points="151,-175.5 356,-175.5 "/>
<text text-anchor="middle" x="253.5" y="-160.3" font-family="Times,serif" font-size="14.00">requestCount metrics.Counter</text>
<polyline fill="none" stroke="black" points="151,-152.5 356,-152.5 "/>
<text text-anchor="middle" x="253.5" y="-137.3" font-family="Times,serif" font-size="14.00">requestLatency metrics.Histogram</text>
<polyline fill="none" stroke="black" points="151,-129.5 356,-129.5 "/>
<text text-anchor="middle" x="253.5" y="-114.3" font-family="Times,serif" font-size="14.00">countResult metrics.Histogram</text>
<polyline fill="none" stroke="black" points="151,-106.5 356,-106.5 "/>
<text text-anchor="middle" x="253.5" y="-91.3" font-family="Times,serif" font-size="14.00">next EdgecastService</text>
</g>
<!-- node&#45;instrumentingMiddleware&#45;&gt;node&#45;EdgecastService -->
<g id="edge2" class="edge"><title>node&#45;instrumentingMiddleware:f3&#45;&gt;node&#45;EdgecastService</title>
<path fill="none" stroke="black" d="M149.5,-95C141.117,-95 144.423,-75.2126 149.386,-56.6039"/>
<polygon fill="black" stroke="black" points="152.803,-57.3822 152.164,-46.8066 146.068,-55.4726 152.803,-57.3822"/>
</g>
<!-- node&#45;getDataRequest -->
<g id="node3" class="node"><title>node&#45;getDataRequest</title>
<polygon fill="none" stroke="black" points="374,-118 374,-164 493,-164 493,-118 374,-118"/>
<text text-anchor="middle" x="433.5" y="-148.8" font-family="Times,serif" font-size="14.00">getDataRequest</text>
<polyline fill="none" stroke="black" points="374,-141 493,-141 "/>
<text text-anchor="middle" x="433.5" y="-125.8" font-family="Times,serif" font-size="14.00">AirportCode string</text>
</g>
<!-- node&#45;getDataResponse -->
<g id="node4" class="node"><title>node&#45;getDataResponse</title>
<polygon fill="none" stroke="black" points="511.5,-106.5 511.5,-175.5 621.5,-175.5 621.5,-106.5 511.5,-106.5"/>
<text text-anchor="middle" x="566.5" y="-160.3" font-family="Times,serif" font-size="14.00">getDataResponse</text>
<polyline fill="none" stroke="black" points="511.5,-152.5 621.5,-152.5 "/>
<text text-anchor="middle" x="566.5" y="-137.3" font-family="Times,serif" font-size="14.00">Data string</text>
<polyline fill="none" stroke="black" points="511.5,-129.5 621.5,-129.5 "/>
<text text-anchor="middle" x="566.5" y="-114.3" font-family="Times,serif" font-size="14.00">Err string</text>
</g>
<!-- node&#45;edgecastService -->
<g id="node6" class="node"><title>node&#45;edgecastService</title>
<polygon fill="none" stroke="black" points="639.5,-118 639.5,-164 743.5,-164 743.5,-118 639.5,-118"/>
<text text-anchor="middle" x="691.5" y="-148.8" font-family="Times,serif" font-size="14.00">edgecastService</text>
<polyline fill="none" stroke="black" points="639.5,-141 743.5,-141 "/>
<text text-anchor="middle" x="691.5" y="-125.8" font-family="Times,serif" font-size="14.00"> </text>
</g>
</g>
</svg>
