<?xml version="1.0" encoding="UTF-8" standalone="no"?>
<!DOCTYPE svg PUBLIC "-//W3C//DTD SVG 1.1//EN"
 "http://www.w3.org/Graphics/SVG/1.1/DTD/svg11.dtd">
<!-- Generated by graphviz version 2.38.0 (20140413.2041)
 -->
<!-- Title: GoERD Pages: 1 -->
<svg width="519pt" height="253pt"
 viewBox="0.00 0.00 518.50 253.00" xmlns="http://www.w3.org/2000/svg" xmlns:xlink="http://www.w3.org/1999/xlink">
<g id="graph0" class="graph" transform="scale(1 1) rotate(0) translate(4 249)">
<title>GoERD</title>
<polygon fill="white" stroke="none" points="-4,4 -4,-249 514.5,-249 514.5,4 -4,4"/>
<!-- node&#45;instrumentingMiddleware -->
<g id="node1" class="node"><title>node&#45;instrumentingMiddleware</title>
<polygon fill="none" stroke="black" points="0,-152.5 0,-244.5 205,-244.5 205,-152.5 0,-152.5"/>
<text text-anchor="middle" x="102.5" y="-229.3" font-family="Times,serif" font-size="14.00">instrumentingMiddleware</text>
<polyline fill="none" stroke="black" points="0,-221.5 205,-221.5 "/>
<text text-anchor="middle" x="102.5" y="-206.3" font-family="Times,serif" font-size="14.00">requestCount metrics.Counter</text>
<polyline fill="none" stroke="black" points="0,-198.5 205,-198.5 "/>
<text text-anchor="middle" x="102.5" y="-183.3" font-family="Times,serif" font-size="14.00">requestLatency metrics.Histogram</text>
<polyline fill="none" stroke="black" points="0,-175.5 205,-175.5 "/>
<text text-anchor="middle" x="102.5" y="-160.3" font-family="Times,serif" font-size="14.00">next EdgecastInterface</text>
</g>
<!-- node&#45;EdgecastInterface -->
<g id="node2" class="node"><title>node&#45;EdgecastInterface</title>
<path fill="none" stroke="black" d="M134.5,-0.5C134.5,-0.5 440.5,-0.5 440.5,-0.5 446.5,-0.5 452.5,-6.5 452.5,-12.5 452.5,-12.5 452.5,-103.5 452.5,-103.5 452.5,-109.5 446.5,-115.5 440.5,-115.5 440.5,-115.5 134.5,-115.5 134.5,-115.5 128.5,-115.5 122.5,-109.5 122.5,-103.5 122.5,-103.5 122.5,-12.5 122.5,-12.5 122.5,-6.5 128.5,-0.5 134.5,-0.5"/>
<text text-anchor="middle" x="287.5" y="-100.3" font-family="Times,serif" font-size="14.00">EdgecastInterface interface</text>
<polyline fill="none" stroke="black" points="122.5,-92.5 452.5,-92.5 "/>
<text text-anchor="middle" x="287.5" y="-77.3" font-family="Times,serif" font-size="14.00">Bandwidth func(int) (*edgecast.BandwidthData, error)</text>
<polyline fill="none" stroke="black" points="122.5,-69.5 452.5,-69.5 "/>
<text text-anchor="middle" x="287.5" y="-54.3" font-family="Times,serif" font-size="14.00">Connections func(int) (*edgecast.ConnectionData, error)</text>
<polyline fill="none" stroke="black" points="122.5,-46.5 452.5,-46.5 "/>
<text text-anchor="middle" x="287.5" y="-31.3" font-family="Times,serif" font-size="14.00">CacheStatus func(int) (*edgecast.CacheStatusData, error)</text>
<polyline fill="none" stroke="black" points="122.5,-23.5 452.5,-23.5 "/>
<text text-anchor="middle" x="287.5" y="-8.3" font-family="Times,serif" font-size="14.00">StatusCodes func(int) (*edgecast.StatusCodeData, error)</text>
</g>
<!-- node&#45;instrumentingMiddleware&#45;&gt;node&#45;EdgecastInterface -->
<g id="edge1" class="edge"><title>node&#45;instrumentingMiddleware:f2&#45;&gt;node&#45;EdgecastInterface</title>
<path fill="none" stroke="black" d="M206.5,-163.5C212.484,-163.5 210.075,-156.906 213.5,-152 219.986,-142.709 227.094,-133.125 234.26,-123.801"/>
<polygon fill="black" stroke="black" points="237.19,-125.734 240.557,-115.688 231.66,-121.441 237.19,-125.734"/>
</g>
<!-- node&#45;EdgecastCollector -->
<g id="node3" class="node"><title>node&#45;EdgecastCollector</title>
<polygon fill="none" stroke="black" points="223,-175.5 223,-221.5 352,-221.5 352,-175.5 223,-175.5"/>
<text text-anchor="middle" x="287.5" y="-206.3" font-family="Times,serif" font-size="14.00">EdgecastCollector</text>
<polyline fill="none" stroke="black" points="223,-198.5 352,-198.5 "/>
<text text-anchor="middle" x="287.5" y="-183.3" font-family="Times,serif" font-size="14.00">ec EdgecastInterface</text>
</g>
<!-- node&#45;EdgecastCollector&#45;&gt;node&#45;EdgecastInterface -->
<g id="edge2" class="edge"><title>node&#45;EdgecastCollector:f0&#45;&gt;node&#45;EdgecastInterface</title>
<path fill="none" stroke="black" d="M287.5,-174.5C287.5,-158.791 287.5,-141.881 287.5,-125.975"/>
<polygon fill="black" stroke="black" points="291,-125.69 287.5,-115.69 284,-125.69 291,-125.69"/>
</g>
<!-- node&#45;loggingMiddleware -->
<g id="node4" class="node"><title>node&#45;loggingMiddleware</title>
<polygon fill="none" stroke="black" points="370.5,-164 370.5,-233 510.5,-233 510.5,-164 370.5,-164"/>
<text text-anchor="middle" x="440.5" y="-217.8" font-family="Times,serif" font-size="14.00">loggingMiddleware</text>
<polyline fill="none" stroke="black" points="370.5,-210 510.5,-210 "/>
<text text-anchor="middle" x="440.5" y="-194.8" font-family="Times,serif" font-size="14.00">logger log.Logger</text>
<polyline fill="none" stroke="black" points="370.5,-187 510.5,-187 "/>
<text text-anchor="middle" x="440.5" y="-171.8" font-family="Times,serif" font-size="14.00">next EdgecastInterface</text>
</g>
<!-- node&#45;loggingMiddleware&#45;&gt;node&#45;EdgecastInterface -->
<g id="edge3" class="edge"><title>node&#45;loggingMiddleware:f1&#45;&gt;node&#45;EdgecastInterface</title>
<path fill="none" stroke="black" d="M369.5,-175.5C358.467,-175.5 366.791,-161.682 361.5,-152 356.311,-142.504 350.142,-132.996 343.613,-123.879"/>
<polygon fill="black" stroke="black" points="346.283,-121.602 337.533,-115.627 340.647,-125.754 346.283,-121.602"/>
</g>
</g>
</svg>
